<svg width="174" height="54" viewBox="0 0 174 54" fill="none" xmlns="http://www.w3.org/2000/svg">
<rect width="174" height="54" rx="27" fill="#4CAF50"/>
<rect x="8" y="8" width="110" height="38" rx="18" fill="#FEFEFE"/>
<path d="M22.044 31C21.252 31 20.592 30.908 20.064 30.724C19.536 30.54 19.14 30.26 18.876 29.884C18.612 29.508 18.48 29.028 18.48 28.444C18.48 28.252 18.492 28.044 18.516 27.82C18.548 27.596 18.584 27.38 18.624 27.172C18.664 26.956 18.7 26.772 18.732 26.62C18.764 26.46 18.784 26.352 18.792 26.296L19.704 26.464C19.68 26.592 19.644 26.768 19.596 26.992C19.556 27.216 19.516 27.456 19.476 27.712C19.436 27.968 19.416 28.212 19.416 28.444C19.416 28.74 19.46 28.996 19.548 29.212C19.644 29.428 19.792 29.608 19.992 29.752C20.2 29.888 20.472 29.988 20.808 30.052C21.144 30.116 21.556 30.148 22.044 30.148H25.572V25H26.508V31H22.044ZM21.216 25.084V24.004H22.152V25.084H21.216ZM22.86 25.084V24.004H23.796V25.084H22.86ZM29.5565 31V30.148H31.0205V31H29.5565ZM28.6325 31V22.396H29.5565V31H28.6325ZM31.0205 31V30.148C31.0685 30.148 31.1085 30.16 31.1405 30.184C31.1725 30.2 31.1965 30.228 31.2125 30.268C31.2285 30.3 31.2405 30.344 31.2485 30.4C31.2565 30.448 31.2605 30.504 31.2605 30.568C31.2605 30.632 31.2565 30.692 31.2485 30.748C31.2405 30.804 31.2285 30.852 31.2125 30.892C31.1965 30.924 31.1725 30.952 31.1405 30.976C31.1085 30.992 31.0685 31 31.0205 31ZM33.2515 31V30.148H34.5475V31H33.2515ZM31.0195 31C30.9715 31 30.9315 30.992 30.8995 30.976C30.8675 30.952 30.8435 30.924 30.8275 30.892C30.8115 30.852 30.7995 30.804 30.7915 30.748C30.7835 30.692 30.7795 30.632 30.7795 30.568C30.7795 30.48 30.7875 30.408 30.8035 30.352C30.8115 30.288 30.8355 30.24 30.8755 30.208C30.9075 30.168 30.9555 30.148 31.0195 30.148V31ZM31.0195 31V30.148H32.7475L32.3155 30.496V25H33.2515V31H31.0195ZM34.5475 31V30.148C34.5955 30.148 34.6355 30.16 34.6675 30.184C34.6995 30.2 34.7235 30.228 34.7395 30.268C34.7555 30.3 34.7675 30.344 34.7755 30.4C34.7835 30.448 34.7875 30.504 34.7875 30.568C34.7875 30.632 34.7835 30.692 34.7755 30.748C34.7675 30.804 34.7555 30.852 34.7395 30.892C34.7235 30.924 34.6995 30.952 34.6675 30.976C34.6355 30.992 34.5955 31 34.5475 31ZM32.3155 33.16V32.08H33.2515V33.16H32.3155ZM36.9349 31V30.148H38.2309V31H36.9349ZM34.5469 31C34.4989 31 34.4589 30.992 34.4269 30.976C34.3949 30.952 34.3709 30.924 34.3549 30.892C34.3389 30.852 34.3269 30.804 34.3189 30.748C34.3109 30.692 34.3069 30.632 34.3069 30.568C34.3069 30.48 34.3149 30.408 34.3309 30.352C34.3389 30.288 34.3629 30.24 34.4029 30.208C34.4349 30.168 34.4829 30.148 34.5469 30.148V31ZM35.9989 31V22.396H36.9349V31H35.9989ZM34.5469 31V30.148H35.9989V31H34.5469ZM38.2309 31V30.148C38.2789 30.148 38.3189 30.16 38.3509 30.184C38.3829 30.2 38.4069 30.228 38.4229 30.268C38.4389 30.3 38.4509 30.344 38.4589 30.4C38.4669 30.448 38.4709 30.504 38.4709 30.568C38.4709 30.632 38.4669 30.692 38.4589 30.748C38.4509 30.804 38.4389 30.852 38.4229 30.892C38.4069 30.924 38.3829 30.952 38.3509 30.976C38.3189 30.992 38.2789 31 38.2309 31ZM45.9186 31V30.148H47.2146V31H45.9186ZM38.2266 31V30.148H46.1826L45.3186 30.928V28.108C45.3186 27.604 45.2466 27.188 45.1026 26.86C44.9666 26.524 44.7586 26.272 44.4786 26.104C44.2066 25.936 43.8626 25.852 43.4466 25.852C43.0946 25.852 42.7666 25.912 42.4626 26.032C42.1666 26.144 41.8906 26.296 41.6346 26.488C41.3786 26.672 41.1386 26.88 40.9146 27.112C40.6986 27.336 40.4986 27.564 40.3146 27.796C40.1306 28.028 39.9626 28.24 39.8106 28.432L39.4986 27.58C39.7466 27.268 39.9986 26.96 40.2546 26.656C40.5106 26.352 40.7906 26.076 41.0946 25.828C41.3986 25.58 41.7426 25.38 42.1266 25.228C42.5106 25.076 42.9506 25 43.4466 25C44.0146 25 44.4786 25.096 44.8386 25.288C45.2066 25.48 45.4906 25.736 45.6906 26.056C45.8986 26.368 46.0426 26.704 46.1226 27.064C46.2026 27.424 46.2426 27.772 46.2426 28.108V31H38.2266ZM39.0186 30.148V22.396H39.9546V30.148H39.0186ZM38.2266 31C38.1786 31 38.1386 30.992 38.1066 30.976C38.0746 30.952 38.0506 30.924 38.0346 30.892C38.0186 30.852 38.0066 30.804 37.9986 30.748C37.9906 30.692 37.9866 30.632 37.9866 30.568C37.9866 30.48 37.9946 30.408 38.0106 30.352C38.0186 30.288 38.0426 30.24 38.0826 30.208C38.1146 30.168 38.1626 30.148 38.2266 30.148V31ZM47.2146 31V30.148C47.2626 30.148 47.3026 30.16 47.3346 30.184C47.3666 30.2 47.3906 30.228 47.4066 30.268C47.4226 30.3 47.4346 30.344 47.4426 30.4C47.4506 30.448 47.4546 30.504 47.4546 30.568C47.4546 30.632 47.4506 30.692 47.4426 30.748C47.4346 30.804 47.4226 30.852 47.4066 30.892C47.3906 30.924 47.3666 30.952 47.3346 30.976C47.3026 30.992 47.2626 31 47.2146 31ZM48.6668 31V22.396H49.6028V31H48.6668ZM47.2148 31V30.148H48.6668V31H47.2148ZM47.2148 31C47.1668 31 47.1268 30.992 47.0948 30.976C47.0628 30.952 47.0388 30.924 47.0228 30.892C47.0068 30.852 46.9948 30.804 46.9868 30.748C46.9788 30.692 46.9748 30.632 46.9748 30.568C46.9748 30.48 46.9828 30.408 46.9988 30.352C47.0068 30.288 47.0308 30.24 47.0708 30.208C47.1028 30.168 47.1508 30.148 47.2148 30.148V31ZM51.6715 31V22.396H52.5955V31H51.6715ZM63.4709 31V30.148H64.7669V31H63.4709ZM60.2309 33.976C59.5989 33.976 59.0269 33.86 58.5149 33.628C58.0029 33.396 57.5989 33.072 57.3029 32.656C57.0069 32.24 56.8589 31.764 56.8589 31.228C56.8589 31.06 56.8709 30.84 56.8949 30.568C56.9269 30.288 56.9629 29.98 57.0029 29.644C57.0509 29.3 57.1029 28.956 57.1589 28.612C57.2149 28.26 57.2669 27.928 57.3149 27.616L58.2389 27.76C58.1509 28.312 58.0709 28.824 57.9989 29.296C57.9349 29.76 57.8829 30.16 57.8429 30.496C57.8109 30.824 57.7949 31.068 57.7949 31.228C57.7949 31.596 57.8949 31.92 58.0949 32.2C58.3029 32.488 58.5909 32.712 58.9589 32.872C59.3269 33.04 59.7509 33.124 60.2309 33.124C60.7109 33.124 61.1229 33.048 61.4669 32.896C61.8109 32.744 62.0749 32.532 62.2589 32.26C62.4429 31.988 62.5349 31.668 62.5349 31.3V22.396H63.4709V31.3C63.4709 31.86 63.3229 32.34 63.0269 32.74C62.7389 33.14 62.3509 33.444 61.8629 33.652C61.3749 33.868 60.8309 33.976 60.2309 33.976ZM64.7669 31V30.148C64.8149 30.148 64.8549 30.16 64.8869 30.184C64.9189 30.2 64.9429 30.228 64.9589 30.268C64.9749 30.3 64.9869 30.344 64.9949 30.4C65.0029 30.448 65.0069 30.504 65.0069 30.568C65.0069 30.632 65.0029 30.692 64.9949 30.748C64.9869 30.804 64.9749 30.852 64.9589 30.892C64.9429 30.924 64.9189 30.952 64.8869 30.976C64.8549 30.992 64.8149 31 64.7669 31ZM70.7095 31V30.148H72.0055V31H70.7095ZM64.7695 31C64.7215 31 64.6815 30.992 64.6495 30.976C64.6175 30.952 64.5935 30.924 64.5775 30.892C64.5615 30.852 64.5495 30.804 64.5415 30.748C64.5335 30.692 64.5295 30.632 64.5295 30.568C64.5295 30.48 64.5375 30.408 64.5535 30.352C64.5615 30.288 64.5855 30.24 64.6255 30.208C64.6575 30.168 64.7055 30.148 64.7695 30.148V31ZM64.7695 31V30.148H70.0615L69.7735 30.4V27.424C69.7735 26.904 69.6095 26.516 69.2815 26.26C68.9615 25.996 68.4695 25.864 67.8055 25.864C67.5975 25.864 67.2975 25.884 66.9055 25.924C66.5135 25.956 66.1015 26.004 65.6695 26.068L65.5615 25.3C65.8895 25.22 66.2495 25.152 66.6415 25.096C67.0335 25.032 67.4135 25 67.7815 25C68.3895 25 68.9095 25.096 69.3415 25.288C69.7815 25.472 70.1175 25.744 70.3495 26.104C70.5895 26.464 70.7095 26.904 70.7095 27.424V31H64.7695ZM72.0055 31V30.148C72.0535 30.148 72.0935 30.16 72.1255 30.184C72.1575 30.2 72.1815 30.228 72.1975 30.268C72.2135 30.3 72.2255 30.344 72.2335 30.4C72.2415 30.448 72.2455 30.504 72.2455 30.568C72.2455 30.632 72.2415 30.692 72.2335 30.748C72.2255 30.804 72.2135 30.852 72.1975 30.892C72.1815 30.924 72.1575 30.952 72.1255 30.976C72.0935 30.992 72.0535 31 72.0055 31ZM67.3135 33.16V32.08H68.2495V33.16H67.3135ZM78.312 31C78.04 31 77.772 30.948 77.508 30.844C77.252 30.74 77.004 30.576 76.764 30.352L77.376 29.716C77.56 29.868 77.724 29.98 77.868 30.052C78.012 30.116 78.16 30.148 78.312 30.148H80.448L80.088 30.532V27.664C80.088 27.52 80.072 27.316 80.04 27.052C80.016 26.788 79.976 26.492 79.92 26.164C79.872 25.828 79.812 25.492 79.74 25.156L80.652 25C80.708 25.28 80.764 25.592 80.82 25.936C80.876 26.28 80.924 26.608 80.964 26.92C81.004 27.224 81.024 27.472 81.024 27.664V31H78.312ZM72 31V30.148H73.752L73.512 30.388V26.2H74.436V31H72ZM74.436 31V30.148H75.792C76.064 30.148 76.268 30.108 76.404 30.028C76.548 29.948 76.648 29.788 76.704 29.548C76.76 29.308 76.788 28.956 76.788 28.492V25.6H77.724V28.492C77.724 29.116 77.656 29.612 77.52 29.98C77.392 30.348 77.188 30.612 76.908 30.772C76.628 30.924 76.256 31 75.792 31H74.436ZM72 31C71.952 31 71.912 30.992 71.88 30.976C71.848 30.952 71.824 30.924 71.808 30.892C71.792 30.852 71.78 30.804 71.772 30.748C71.764 30.692 71.76 30.632 71.76 30.568C71.76 30.48 71.768 30.408 71.784 30.352C71.792 30.288 71.816 30.24 71.856 30.208C71.888 30.168 71.936 30.148 72 30.148V31Z" fill="#050505"/>
<path d="M106.207 20.7927C106.082 20.667 105.925 20.5771 105.753 20.5323C105.581 20.4875 105.4 20.4893 105.229 20.5377H105.219L93.2231 24.1777C93.0283 24.2338 92.8552 24.3478 92.7267 24.5045C92.5982 24.6612 92.5203 24.8533 92.5035 25.0553C92.4866 25.2573 92.5315 25.4596 92.6322 25.6355C92.7329 25.8114 92.8847 25.9525 93.0674 26.0402L98.3749 28.6252L100.956 33.9295C101.036 34.1009 101.164 34.2456 101.324 34.3468C101.484 34.4479 101.669 34.5011 101.859 34.5002C101.887 34.5002 101.916 34.4989 101.945 34.4964C102.147 34.4801 102.339 34.4024 102.495 34.2738C102.652 34.1452 102.765 33.9719 102.82 33.777L106.457 21.7808C106.457 21.7777 106.457 21.7745 106.457 21.7714C106.506 21.6008 106.509 21.4202 106.465 21.2482C106.421 21.0761 106.332 20.9189 106.207 20.7927ZM101.864 33.4908L101.861 33.4995V33.4952L99.3574 28.3514L102.357 25.3514C102.447 25.2569 102.497 25.131 102.495 25.0006C102.493 24.8702 102.441 24.7457 102.349 24.6535C102.256 24.5613 102.132 24.5087 102.001 24.5071C101.871 24.5054 101.745 24.5547 101.651 24.6445L98.6506 27.6445L93.5049 25.1408H93.5006H93.5093L105.5 21.5002L101.864 33.4908Z" fill="black"/>
<rect x="130" y="9" width="36" height="36" rx="18" fill="#FEFEFE"/>
<path d="M153.707 25.7927L148.707 20.7927C148.519 20.6053 148.265 20.5 148 20.5C147.735 20.5 147.481 20.6053 147.293 20.7927L142.293 25.7927C142.2 25.8853 142.126 25.9955 142.076 26.117C142.025 26.2384 142 26.3687 142 26.5002V32.5002C142 32.6328 142.053 32.7599 142.146 32.8537C142.24 32.9475 142.367 33.0002 142.5 33.0002H153.5C153.633 33.0002 153.76 32.9475 153.854 32.8537C153.947 32.7599 154 32.6328 154 32.5002V26.5002C154 26.3687 153.975 26.2384 153.924 26.117C153.874 25.9955 153.8 25.8853 153.707 25.7927ZM153 32.0002H143V26.5002L148 21.5002L153 26.5002V32.0002Z" fill="#050505"/>
</svg>
