<svg width="334" height="64" viewBox="0 0 334 64" fill="none" xmlns="http://www.w3.org/2000/svg">
<rect width="334" height="64" rx="30" fill="#EDF7EE"/>
<g clip-path="url(#clip0_117_1764)">
<path d="M53.4401 32.99L53.4301 33.01C53.4701 32.68 53.5101 32.34 53.5101 32C53.5101 31.66 53.4801 31.34 53.4401 31.01L53.4501 31.03L55.8901 29.11L53.4601 24.89L50.5901 26.05L50.6001 26.06C50.0801 25.66 49.5101 25.32 48.8901 25.06H48.9001L48.4401 22H43.5701L43.1301 25.07H43.1401C42.5201 25.33 41.9501 25.67 41.4301 26.07L41.4401 26.06L38.5601 24.89L36.1201 29.11L38.5601 31.03L38.5701 31.01C38.5301 31.34 38.5001 31.66 38.5001 32C38.5001 32.34 38.5301 32.68 38.5801 33.01L38.5701 32.99L36.4701 34.64L36.1401 34.9L38.5701 39.1L41.4501 37.95L41.4301 37.91C41.9601 38.32 42.5301 38.66 43.1601 38.92H43.1301L43.5801 42H48.4301C48.4301 42 48.4601 41.82 48.4901 41.58L48.8701 38.93H48.8601C49.4801 38.67 50.0601 38.33 50.5901 37.92L50.5701 37.96L53.4501 39.11L55.8801 34.91C55.8801 34.91 55.7401 34.79 55.5501 34.65L53.4401 32.99ZM46.0001 35.5C44.0701 35.5 42.5001 33.93 42.5001 32C42.5001 30.07 44.0701 28.5 46.0001 28.5C47.9301 28.5 49.5001 30.07 49.5001 32C49.5001 33.93 47.9301 35.5 46.0001 35.5Z" fill="#060606"/>
</g>
<rect x="139" y="12" width="40" height="40" rx="15" fill="#4CAF50"/>
<path d="M154.5 26.75H157.5M154.5 32H163.5M154.5 35H163.5M154.5 38H157.5M153 41.75H165C165.398 41.75 165.779 41.592 166.061 41.3107C166.342 41.0294 166.5 40.6478 166.5 40.25V23.75C166.5 23.3522 166.342 22.9706 166.061 22.6893C165.779 22.408 165.398 22.25 165 22.25H153C152.602 22.25 152.221 22.408 151.939 22.6893C151.658 22.9706 151.5 23.3522 151.5 23.75V40.25C151.5 40.6478 151.658 41.0294 151.939 41.3107C152.221 41.592 152.602 41.75 153 41.75Z" stroke="black" stroke-width="1.5" stroke-linecap="round" stroke-linejoin="round"/>
<path d="M163.5 27.125C163.707 27.125 163.875 26.9571 163.875 26.75C163.875 26.5429 163.707 26.375 163.5 26.375C163.293 26.375 163.125 26.5429 163.125 26.75C163.125 26.9571 163.293 27.125 163.5 27.125Z" fill="black" stroke="black" stroke-width="0.75"/>
<g clip-path="url(#clip1_117_1764)">
<path d="M278 40V34H282V40H287V32H290L280 23L270 32H273V40H278Z" fill="#060606"/>
</g>
<defs>
<clipPath id="clip0_117_1764">
<rect width="24" height="24" fill="white" transform="translate(34 20)"/>
</clipPath>
<clipPath id="clip1_117_1764">
<rect width="24" height="24" fill="white" transform="translate(268 20)"/>
</clipPath>
</defs>
</svg>
