<svg width="393" height="361" viewBox="0 0 393 361" fill="none" xmlns="http://www.w3.org/2000/svg">
<g filter="url(#filter0_d_1_503)">
<path d="M0 53C0 25.386 22.386 3 50 3H343C370.614 3 393 25.386 393 53V361H0V53Z" fill="white"/>
<path d="M37.357 79.9999C35.997 79.9999 34.877 79.7839 33.997 79.3519C33.117 78.9199 32.461 78.2639 32.029 77.3839C31.613 76.5039 31.405 75.3919 31.405 74.0479C31.405 72.7039 31.613 71.5839 32.029 70.6879C32.461 69.7759 33.117 69.0959 33.997 68.6479C34.877 68.1839 35.997 67.952 37.357 67.952H42.781V78.4879H39.565V70.0399L40.357 70.736H37.357C36.701 70.736 36.173 70.816 35.773 70.976C35.373 71.12 35.077 71.4319 34.885 71.9119C34.709 72.3759 34.621 73.0879 34.621 74.0479C34.621 74.9599 34.701 75.6479 34.861 76.1119C35.037 76.5599 35.325 76.8559 35.725 76.9999C36.125 77.1439 36.669 77.2159 37.357 77.2159H45.301V79.9999H37.357ZM45.301 79.9999V77.2159C45.397 77.2159 45.469 77.248 45.517 77.312C45.581 77.376 45.629 77.4719 45.661 77.5999C45.709 77.7279 45.741 77.88 45.757 78.056C45.773 78.216 45.781 78.3999 45.781 78.6079C45.781 78.8159 45.773 79.008 45.757 79.184C45.741 79.36 45.709 79.512 45.661 79.64C45.629 79.752 45.581 79.8399 45.517 79.9039C45.469 79.9679 45.397 79.9999 45.301 79.9999ZM33.781 65.744V63.0079H36.877V65.744H33.781ZM38.149 65.744V63.0079H41.245V65.744H38.149ZM45.305 79.9999V77.2159H50.393C51.081 77.2159 51.745 77.0879 52.385 76.8319C53.025 76.5599 53.609 76.2079 54.137 75.7759C54.681 75.3279 55.153 74.84 55.553 74.312C55.969 73.768 56.289 73.2159 56.513 72.6559C56.753 72.0959 56.873 71.568 56.873 71.072V69.5359L58.409 72.08C57.577 71.632 56.729 71.296 55.865 71.072C55.001 70.848 54.177 70.736 53.393 70.736C52.625 70.736 51.801 70.848 50.921 71.072C50.057 71.296 49.217 71.632 48.401 72.08L49.937 69.5359V71.072C49.937 71.568 50.049 72.0959 50.273 72.6559C50.513 73.2159 50.833 73.768 51.233 74.312C51.633 74.84 52.105 75.3279 52.649 75.7759C53.193 76.2079 53.785 76.5599 54.425 76.8319C55.065 77.0879 55.721 77.2159 56.393 77.2159H61.337V79.9999H57.401C56.153 79.9999 54.985 79.8 53.897 79.4C52.809 79 51.825 78.4719 50.945 77.8159C50.065 77.1439 49.305 76.416 48.665 75.632C48.041 74.832 47.561 74.0399 47.225 73.2559C46.889 72.4559 46.721 71.728 46.721 71.072V69.7039C47.409 69.3199 48.137 69 48.905 68.744C49.689 68.488 50.465 68.296 51.233 68.168C52.017 68.024 52.737 67.952 53.393 67.952C54.065 67.952 54.785 68.024 55.553 68.168C56.321 68.296 57.089 68.488 57.857 68.744C58.641 69 59.377 69.3199 60.065 69.7039V71.072C60.065 71.728 59.897 72.4559 59.561 73.2559C59.225 74.0399 58.737 74.832 58.097 75.632C57.473 76.416 56.721 77.1439 55.841 77.8159C54.961 78.4719 53.977 79 52.889 79.4C51.801 79.8 50.633 79.9999 49.385 79.9999H45.305ZM45.305 79.9999C45.209 79.9999 45.137 79.9679 45.089 79.9039C45.025 79.8399 44.977 79.752 44.945 79.64C44.897 79.512 44.865 79.36 44.849 79.184C44.833 79.008 44.825 78.8159 44.825 78.6079C44.825 78.3199 44.841 78.0799 44.873 77.8879C44.905 77.6799 44.961 77.52 45.041 77.408C45.105 77.28 45.193 77.2159 45.305 77.2159V79.9999ZM61.337 79.9999V77.2159C61.433 77.2159 61.513 77.248 61.577 77.312C61.641 77.376 61.689 77.4719 61.721 77.5999C61.753 77.7279 61.777 77.88 61.793 78.056C61.809 78.216 61.817 78.3999 61.817 78.6079C61.817 78.8159 61.809 79.008 61.793 79.184C61.777 79.36 61.753 79.512 61.721 79.64C61.689 79.752 61.641 79.8399 61.577 79.9039C61.513 79.9679 61.433 79.9999 61.337 79.9999ZM75.448 79.9999C74.792 79.9999 74.136 79.88 73.48 79.64C72.84 79.384 72.248 79.008 71.704 78.512L73.672 76.4719C73.992 76.7279 74.288 76.9199 74.56 77.0479C74.848 77.1599 75.144 77.2159 75.448 77.2159H79.936L78.2801 78.728V73.4C78.2801 73.144 78.2481 72.7599 78.1841 72.2479C78.1361 71.7199 78.056 71.1279 77.944 70.4719C77.848 69.7999 77.728 69.1199 77.584 68.4319L80.752 67.952C80.864 68.528 80.9681 69.1759 81.0641 69.8959C81.1761 70.5999 81.272 71.2719 81.352 71.9119C81.432 72.5359 81.472 73.032 81.472 73.4V79.9999H75.448ZM61.336 79.9999V77.2159H64.84L64.12 77.96V70.4H67.336V79.9999H61.336ZM67.336 79.9999V77.2159H69.28C69.792 77.2159 70.184 77.1439 70.456 76.9999C70.728 76.8399 70.912 76.528 71.008 76.064C71.12 75.584 71.176 74.8719 71.176 73.9279V69.2H74.3921V73.9279C74.3921 75.3519 74.208 76.512 73.84 77.408C73.488 78.304 72.936 78.9599 72.184 79.3759C71.432 79.7919 70.464 79.9999 69.28 79.9999H67.336ZM61.336 79.9999C61.24 79.9999 61.168 79.9679 61.12 79.9039C61.056 79.8399 61.008 79.752 60.976 79.64C60.928 79.512 60.896 79.36 60.88 79.184C60.864 79.008 60.856 78.8159 60.856 78.6079C60.856 78.3199 60.872 78.0799 60.904 77.8879C60.936 77.6799 60.992 77.52 61.072 77.408C61.136 77.28 61.224 77.2159 61.336 77.2159V79.9999ZM71.416 62.072V59.6719H74.2V62.072H71.416ZM69.088 65.744V63.0079H72.184V65.744H69.088ZM73.456 65.744V63.0079H76.552V65.744H73.456ZM97.988 79.9999V77.2159H100.508V79.9999H97.988ZM84.1161 79.9999V77.2159H96.308L94.772 78.7999V63.0319H97.988V79.9999H84.1161ZM87.4521 77.2159V66.392H90.644V77.2159H87.4521ZM100.508 79.9999V77.2159C100.604 77.2159 100.676 77.248 100.724 77.312C100.788 77.376 100.836 77.4719 100.868 77.5999C100.916 77.7279 100.948 77.88 100.964 78.056C100.98 78.216 100.988 78.3999 100.988 78.6079C100.988 78.8159 100.98 79.008 100.964 79.184C100.948 79.36 100.916 79.512 100.868 79.64C100.836 79.752 100.788 79.8399 100.724 79.9039C100.676 79.9679 100.604 79.9999 100.508 79.9999ZM87.62 64.4C87.316 64.032 87.084 63.6799 86.924 63.3439C86.764 63.0079 86.6841 62.6479 86.6841 62.2639C86.6841 61.7199 86.8281 61.2319 87.1161 60.7999C87.4041 60.3519 87.78 60.0079 88.244 59.7679C88.708 59.5119 89.2201 59.3839 89.7801 59.3839C90.0841 59.3839 90.396 59.424 90.716 59.504C91.036 59.584 91.308 59.704 91.532 59.864L90.716 61.3279C90.572 61.2479 90.428 61.2 90.284 61.184C90.156 61.152 90.02 61.1359 89.876 61.1359C89.492 61.1359 89.196 61.2399 88.988 61.4479C88.78 61.6399 88.6761 61.9039 88.6761 62.2399C88.6761 62.4319 88.7161 62.6159 88.7961 62.7919C88.8761 62.9679 88.996 63.1599 89.156 63.3679L87.62 64.4ZM86.156 64.5919V62.84H91.964V64.5919H86.156ZM103.212 79.9999V63.0319H106.428V79.9999H103.212ZM100.5 79.9999V77.2159H103.212V79.9999H100.5ZM100.5 79.9999C100.404 79.9999 100.332 79.9679 100.284 79.9039C100.22 79.8399 100.172 79.752 100.14 79.64C100.092 79.512 100.06 79.36 100.044 79.184C100.028 79.008 100.02 78.8159 100.02 78.6079C100.02 78.3199 100.036 78.0799 100.068 77.8879C100.1 77.6799 100.156 77.52 100.236 77.408C100.3 77.28 100.388 77.2159 100.5 77.2159V79.9999ZM136.648 79.9999V77.2159H139.168V79.9999H136.648ZM122.536 79.9999C120.824 79.9999 119.376 79.7759 118.192 79.3279C117.024 78.8799 116.136 78.2159 115.528 77.3359C114.936 76.4559 114.64 75.3599 114.64 74.0479C114.64 73.6639 114.664 73.264 114.712 72.848C114.76 72.416 114.816 72.008 114.88 71.624C114.96 71.224 115.032 70.8719 115.096 70.5679C115.16 70.2639 115.208 70.0399 115.24 69.8959L118.36 70.4959C118.312 70.7519 118.248 71.0799 118.168 71.4799C118.088 71.8799 118.016 72.304 117.952 72.752C117.888 73.184 117.856 73.5999 117.856 73.9999C117.856 74.6239 117.952 75.1439 118.144 75.5599C118.352 75.9759 118.656 76.3119 119.056 76.5679C119.456 76.8079 119.96 76.976 120.568 77.072C121.176 77.168 121.888 77.2159 122.704 77.2159H134.392L133.432 78.056V70.0399L134.248 70.736H131.224C130.504 70.736 129.944 70.8239 129.544 70.9999C129.16 71.1759 128.88 71.5039 128.704 71.9839C128.544 72.4479 128.464 73.112 128.464 73.976C128.464 74.92 128.544 75.624 128.704 76.088C128.88 76.536 129.16 76.8399 129.544 76.9999C129.944 77.1439 130.504 77.2159 131.224 77.2159V79.7119C129.848 79.7119 128.72 79.5199 127.84 79.1359C126.976 78.7519 126.328 78.144 125.896 77.312C125.48 76.464 125.272 75.352 125.272 73.976C125.272 72.664 125.48 71.5599 125.896 70.6639C126.328 69.7679 126.976 69.0959 127.84 68.6479C128.72 68.1839 129.848 67.952 131.224 67.952H136.648V79.9999H122.536ZM139.168 79.9999V77.2159C139.264 77.2159 139.336 77.248 139.384 77.312C139.448 77.376 139.496 77.4719 139.528 77.5999C139.576 77.7279 139.608 77.88 139.624 78.056C139.64 78.216 139.648 78.3999 139.648 78.6079C139.648 78.8159 139.64 79.008 139.624 79.184C139.608 79.36 139.576 79.512 139.528 79.64C139.496 79.752 139.448 79.8399 139.384 79.9039C139.336 79.9679 139.264 79.9999 139.168 79.9999ZM129.952 65.744V63.0079H133.168V65.744H129.952ZM146.18 79.9999V77.2159H149.18V79.9999H146.18ZM149.18 79.9999V77.2159C149.26 77.2159 149.332 77.248 149.396 77.312C149.46 77.376 149.508 77.4719 149.54 77.5999C149.572 77.7279 149.596 77.88 149.612 78.056C149.644 78.216 149.66 78.3999 149.66 78.6079C149.66 78.8159 149.644 79.008 149.612 79.184C149.596 79.36 149.572 79.512 149.54 79.64C149.508 79.752 149.46 79.8399 149.396 79.9039C149.348 79.9679 149.276 79.9999 149.18 79.9999ZM139.172 79.9999C139.076 79.9999 139.004 79.9679 138.956 79.9039C138.892 79.8399 138.844 79.752 138.812 79.64C138.764 79.512 138.732 79.36 138.716 79.184C138.7 79.008 138.692 78.8159 138.692 78.6079C138.692 78.3199 138.708 78.0799 138.74 77.8879C138.772 77.6799 138.828 77.52 138.908 77.408C138.972 77.28 139.06 77.2159 139.172 77.2159V79.9999ZM139.172 79.9999V77.2159H144.86L142.988 78.7759V67.952H146.18V79.9999H139.172ZM140.036 85.1119V82.3759H143.132V85.1119H140.036ZM144.404 85.1119V82.3759H147.5V85.1119H144.404ZM149.18 79.9999V77.2159H165.932L163.22 79.5679V74.528C163.22 73.616 163.1 72.8879 162.86 72.3439C162.62 71.7839 162.268 71.3759 161.804 71.1199C161.356 70.8639 160.812 70.736 160.172 70.736C159.484 70.736 158.836 70.8719 158.228 71.1439C157.62 71.4159 157.044 71.768 156.5 72.2C155.972 72.632 155.484 73.0959 155.036 73.5919C154.588 74.0879 154.188 74.5679 153.836 75.0319C153.484 75.4799 153.18 75.864 152.924 76.184L152.204 73.856C152.86 73.024 153.468 72.248 154.028 71.528C154.604 70.808 155.204 70.1839 155.828 69.6559C156.452 69.1119 157.14 68.696 157.892 68.408C158.644 68.104 159.516 67.952 160.508 67.952C161.58 67.952 162.484 68.136 163.22 68.504C163.972 68.856 164.588 69.344 165.068 69.968C165.548 70.592 165.892 71.296 166.1 72.08C166.308 72.864 166.412 73.68 166.412 74.528V79.9999H149.18ZM150.836 77.2159V63.0319H154.028V77.2159H150.836ZM149.18 79.9999C149.084 79.9999 149.012 79.9679 148.964 79.9039C148.9 79.8399 148.852 79.752 148.82 79.64C148.772 79.512 148.74 79.36 148.724 79.184C148.708 79.008 148.7 78.8159 148.7 78.6079C148.7 78.3199 148.716 78.0799 148.748 77.8879C148.78 77.6799 148.836 77.52 148.916 77.408C148.98 77.28 149.068 77.2159 149.18 77.2159V79.9999ZM193.528 79.9999V77.2159H196.072V79.9999H193.528ZM181.24 86.3839C179.928 86.3839 178.744 86.136 177.688 85.64C176.632 85.16 175.8 84.488 175.192 83.624C174.584 82.776 174.28 81.8079 174.28 80.7199C174.28 80.3839 174.304 79.944 174.352 79.4C174.416 78.856 174.488 78.2559 174.568 77.5999C174.664 76.9439 174.76 76.2639 174.856 75.5599C174.968 74.8559 175.072 74.1919 175.168 73.5679L178.336 74.0239C178.176 75.0799 178.032 76.0479 177.904 76.9279C177.776 77.8079 177.672 78.56 177.592 79.184C177.528 79.808 177.496 80.288 177.496 80.624C177.496 81.264 177.64 81.7999 177.928 82.2319C178.232 82.6799 178.664 83.0159 179.224 83.2399C179.784 83.4799 180.456 83.5999 181.24 83.5999H186.856C187.64 83.5999 188.288 83.496 188.8 83.288C189.312 83.08 189.696 82.7679 189.952 82.3519C190.208 81.9519 190.336 81.456 190.336 80.864V70.0399L191.128 70.736H188.104C187.4 70.736 186.848 70.8239 186.448 70.9999C186.048 71.1759 185.768 71.5039 185.608 71.9839C185.448 72.4479 185.368 73.112 185.368 73.976C185.368 74.92 185.448 75.624 185.608 76.088C185.768 76.536 186.048 76.8399 186.448 76.9999C186.848 77.1439 187.4 77.2159 188.104 77.2159H190.336V79.9999H188.104C186.744 79.9999 185.624 79.7919 184.744 79.3759C183.864 78.9439 183.208 78.2799 182.776 77.3839C182.36 76.4879 182.152 75.352 182.152 73.976C182.152 72.664 182.36 71.5599 182.776 70.6639C183.208 69.7679 183.864 69.0959 184.744 68.6479C185.624 68.1839 186.744 67.952 188.104 67.952H193.528V80.864C193.528 82 193.232 82.9759 192.64 83.7919C192.064 84.6239 191.272 85.2639 190.264 85.7119C189.272 86.1599 188.136 86.3839 186.856 86.3839H181.24ZM196.072 79.9999V77.2159C196.152 77.2159 196.224 77.248 196.288 77.312C196.352 77.376 196.4 77.4719 196.432 77.5999C196.464 77.7279 196.488 77.88 196.504 78.056C196.536 78.216 196.552 78.3999 196.552 78.6079C196.552 78.8159 196.536 79.008 196.504 79.184C196.488 79.36 196.464 79.512 196.432 79.64C196.4 79.752 196.352 79.8399 196.288 79.9039C196.224 79.9679 196.152 79.9999 196.072 79.9999ZM184.744 65.744V63.0079H187.84V65.744H184.744ZM189.112 65.744V63.0079H192.208V65.744H189.112ZM203.086 79.9999V77.2159H206.086V79.9999H203.086ZM206.086 79.9999V77.2159C206.166 77.2159 206.238 77.248 206.302 77.312C206.366 77.376 206.414 77.4719 206.446 77.5999C206.478 77.7279 206.502 77.88 206.518 78.056C206.55 78.216 206.566 78.3999 206.566 78.6079C206.566 78.8159 206.55 79.008 206.518 79.184C206.502 79.36 206.478 79.512 206.446 79.64C206.414 79.752 206.366 79.8399 206.302 79.9039C206.254 79.9679 206.182 79.9999 206.086 79.9999ZM196.078 79.9999C195.982 79.9999 195.91 79.9679 195.862 79.9039C195.798 79.8399 195.75 79.752 195.718 79.64C195.67 79.512 195.638 79.36 195.622 79.184C195.606 79.008 195.598 78.8159 195.598 78.6079C195.598 78.3199 195.614 78.0799 195.646 77.8879C195.678 77.6799 195.734 77.52 195.814 77.408C195.878 77.28 195.966 77.2159 196.078 77.2159V79.9999ZM196.078 79.9999V77.2159H201.766L199.894 78.7759V67.952H203.086V79.9999H196.078ZM196.942 85.1119V82.3759H200.038V85.1119H196.942ZM201.31 85.1119V82.3759H204.406V85.1119H201.31ZM211.822 79.9999V77.2159H214.342V79.9999H211.822ZM206.086 79.9999C205.99 79.9999 205.918 79.9679 205.87 79.9039C205.806 79.8399 205.758 79.752 205.726 79.64C205.678 79.512 205.646 79.36 205.63 79.184C205.614 79.008 205.606 78.8159 205.606 78.6079C205.606 78.3199 205.622 78.0799 205.654 77.8879C205.686 77.6799 205.742 77.52 205.822 77.408C205.886 77.28 205.974 77.2159 206.086 77.2159V79.9999ZM206.086 79.9999V77.2159H210.478L208.606 78.7759V67.952H211.822V79.9999H206.086ZM214.342 79.9999V77.2159C214.438 77.2159 214.518 77.248 214.582 77.312C214.646 77.376 214.694 77.4719 214.726 77.5999C214.758 77.7279 214.782 77.88 214.798 78.056C214.814 78.216 214.822 78.3999 214.822 78.6079C214.822 78.8159 214.814 79.008 214.798 79.184C214.782 79.36 214.758 79.512 214.726 79.64C214.694 79.752 214.646 79.8399 214.582 79.9039C214.518 79.9679 214.438 79.9999 214.342 79.9999ZM208.606 85.1119V82.3759H211.822V85.1119H208.606ZM231.064 79.9999V77.2159H233.584V79.9999H231.064ZM214.336 79.9999V77.2159H231.088L228.376 79.5679V74.528C228.376 73.616 228.256 72.8879 228.016 72.3439C227.776 71.7839 227.424 71.3759 226.96 71.1199C226.512 70.8639 225.968 70.736 225.328 70.736C224.64 70.736 223.992 70.8719 223.384 71.1439C222.776 71.4159 222.2 71.768 221.656 72.2C221.128 72.632 220.64 73.0959 220.192 73.5919C219.744 74.0879 219.344 74.5679 218.992 75.0319C218.64 75.4799 218.336 75.864 218.08 76.184L217.36 73.856C218.016 73.024 218.624 72.248 219.184 71.528C219.76 70.808 220.36 70.1839 220.984 69.6559C221.608 69.1119 222.296 68.696 223.048 68.408C223.8 68.104 224.672 67.952 225.664 67.952C226.736 67.952 227.64 68.136 228.376 68.504C229.128 68.856 229.744 69.344 230.224 69.968C230.704 70.592 231.048 71.296 231.256 72.08C231.464 72.864 231.568 73.68 231.568 74.528V79.9999H214.336ZM215.992 77.2159V63.0319H219.184V77.2159H215.992ZM214.336 79.9999C214.24 79.9999 214.168 79.9679 214.12 79.9039C214.056 79.8399 214.008 79.752 213.976 79.64C213.928 79.512 213.896 79.36 213.88 79.184C213.864 79.008 213.856 78.8159 213.856 78.6079C213.856 78.3199 213.872 78.0799 213.904 77.8879C213.936 77.6799 213.992 77.52 214.072 77.408C214.136 77.28 214.224 77.2159 214.336 77.2159V79.9999ZM233.584 79.9999V77.2159C233.68 77.2159 233.76 77.248 233.824 77.312C233.888 77.376 233.936 77.4719 233.968 77.5999C234 77.7279 234.024 77.88 234.04 78.056C234.056 78.216 234.064 78.3999 234.064 78.6079C234.064 78.8159 234.056 79.008 234.04 79.184C234.024 79.36 234 79.512 233.968 79.64C233.936 79.752 233.888 79.8399 233.824 79.9039C233.76 79.9679 233.68 79.9999 233.584 79.9999ZM233.578 79.9999V77.2159H239.266L237.394 78.7759V67.952H240.586V79.9999H233.578ZM233.578 79.9999C233.482 79.9999 233.41 79.9679 233.362 79.9039C233.298 79.8399 233.25 79.752 233.218 79.64C233.17 79.512 233.138 79.36 233.122 79.184C233.106 79.008 233.098 78.8159 233.098 78.6079C233.098 78.3199 233.114 78.0799 233.146 77.8879C233.178 77.6799 233.234 77.52 233.314 77.408C233.378 77.28 233.466 77.2159 233.578 77.2159V79.9999ZM235.282 65.744V63.0079H238.378V65.744H235.282ZM239.65 65.744V63.0079H242.746V65.744H239.65ZM255.85 85.952C254.81 85.952 253.842 85.7999 252.946 85.4959C252.066 85.2079 251.298 84.7999 250.642 84.2719C249.986 83.7599 249.466 83.144 249.082 82.424C248.714 81.72 248.53 80.9519 248.53 80.1199C248.53 79.8159 248.554 79.4239 248.602 78.9439C248.65 78.4639 248.714 77.912 248.794 77.288C248.89 76.664 248.994 76 249.106 75.296L252.274 75.728C252.114 76.736 251.986 77.632 251.89 78.416C251.794 79.2 251.746 79.752 251.746 80.072C251.746 80.68 251.914 81.2159 252.25 81.6799C252.586 82.1439 253.058 82.5039 253.666 82.7599C254.29 83.0319 255.018 83.168 255.85 83.168H262.642C263.682 83.168 264.458 82.9039 264.97 82.3759C265.482 81.8479 265.738 81.08 265.738 80.072V79.1599H268.93V80.072C268.93 81.224 268.674 82.2399 268.162 83.1199C267.65 83.9999 266.922 84.688 265.978 85.184C265.05 85.696 263.938 85.952 262.642 85.952H255.85ZM264.682 79.9999C263.946 79.9999 263.234 79.9199 262.546 79.7599C261.874 79.5999 261.234 79.3119 260.626 78.8959L262.45 76.5919C262.706 76.7679 262.93 76.9039 263.122 76.9999C263.33 77.0799 263.554 77.136 263.794 77.168C264.05 77.2 264.346 77.2159 264.682 77.2159H269.986V79.9999H264.682ZM269.986 79.9999V77.2159C270.066 77.2159 270.138 77.248 270.202 77.312C270.266 77.376 270.314 77.4719 270.346 77.5999C270.378 77.7279 270.402 77.88 270.418 78.056C270.45 78.216 270.466 78.3999 270.466 78.6079C270.466 78.8159 270.45 79.008 270.418 79.184C270.402 79.36 270.378 79.512 270.346 79.64C270.314 79.752 270.266 79.8399 270.202 79.9039C270.138 79.9679 270.066 79.9999 269.986 79.9999ZM255.034 90.8959V88.1599H258.13V90.8959H255.034ZM259.402 90.8959V88.1599H262.498V90.8959H259.402ZM264.633 79.9999V77.2159H275.841L274.857 78.056V70.0399L275.673 70.736H272.649C271.945 70.736 271.393 70.8239 270.993 70.9999C270.593 71.1759 270.313 71.5039 270.153 71.9839C269.993 72.4479 269.913 73.112 269.913 73.976C269.913 74.92 269.993 75.624 270.153 76.088C270.313 76.536 270.593 76.8399 270.993 76.9999C271.393 77.1439 271.945 77.2159 272.649 77.2159V79.7119C271.289 79.7119 270.169 79.5199 269.289 79.1359C268.409 78.7519 267.753 78.144 267.321 77.312C266.905 76.464 266.697 75.352 266.697 73.976C266.697 72.664 266.905 71.5599 267.321 70.6639C267.753 69.7679 268.409 69.0959 269.289 68.6479C270.169 68.1839 271.289 67.952 272.649 67.952H278.073V79.9999H264.633ZM264.633 79.9999C264.537 79.9999 264.465 79.9679 264.417 79.9039C264.353 79.8399 264.305 79.752 264.273 79.64C264.225 79.512 264.193 79.36 264.177 79.184C264.161 79.008 264.153 78.8159 264.153 78.6079C264.153 78.3199 264.169 78.0799 264.201 77.8879C264.233 77.6799 264.289 77.52 264.369 77.408C264.433 77.28 264.521 77.2159 264.633 77.2159V79.9999ZM271.377 65.744V63.0079H274.593V65.744H271.377ZM303.625 79.9999V77.2159H306.145V79.9999H303.625ZM293.833 79.9999C292.121 79.9999 290.673 79.7759 289.489 79.3279C288.321 78.8799 287.433 78.2159 286.825 77.3359C286.233 76.4559 285.937 75.3599 285.937 74.0479C285.937 73.6639 285.961 73.264 286.009 72.848C286.057 72.416 286.113 72.008 286.177 71.624C286.257 71.224 286.329 70.8719 286.393 70.5679C286.457 70.2639 286.505 70.0399 286.537 69.8959L289.657 70.4959C289.609 70.7519 289.545 71.0799 289.465 71.4799C289.385 71.8799 289.313 72.304 289.249 72.752C289.185 73.184 289.153 73.5999 289.153 73.9999C289.153 74.6239 289.249 75.1439 289.441 75.5599C289.649 75.9759 289.953 76.3119 290.353 76.5679C290.753 76.8079 291.257 76.976 291.865 77.072C292.473 77.168 293.185 77.2159 294.001 77.2159H302.281L300.409 78.7759V63.0319H303.625V79.9999H293.833ZM306.145 79.9999V77.2159C306.241 77.2159 306.313 77.248 306.361 77.312C306.425 77.376 306.473 77.4719 306.505 77.5999C306.553 77.7279 306.585 77.88 306.601 78.056C306.617 78.216 306.625 78.3999 306.625 78.6079C306.625 78.8159 306.617 79.008 306.601 79.184C306.585 79.36 306.553 79.512 306.505 79.64C306.473 79.752 306.425 79.8399 306.361 79.9039C306.313 79.9679 306.241 79.9999 306.145 79.9999ZM293.329 70.952C293.025 70.584 292.793 70.2319 292.633 69.8959C292.473 69.5599 292.393 69.1999 292.393 68.8159C292.393 68.2719 292.537 67.7839 292.825 67.3519C293.113 66.9039 293.489 66.5599 293.953 66.3199C294.417 66.0639 294.929 65.9359 295.489 65.9359C295.793 65.9359 296.105 65.976 296.425 66.056C296.745 66.136 297.017 66.256 297.241 66.416L296.425 67.8799C296.281 67.7999 296.137 67.752 295.993 67.736C295.865 67.704 295.729 67.6879 295.585 67.6879C295.201 67.6879 294.905 67.7919 294.697 67.9999C294.489 68.1919 294.385 68.4559 294.385 68.7919C294.385 68.9839 294.425 69.1679 294.505 69.3439C294.585 69.5199 294.705 69.7119 294.865 69.9199L293.329 70.952ZM291.865 71.1439V69.392H297.673V71.1439H291.865ZM306.141 79.9999V77.2159H310.533L308.661 78.7759V67.952H311.877V79.9999H306.141ZM306.141 79.9999C306.045 79.9999 305.973 79.9679 305.925 79.9039C305.861 79.8399 305.813 79.752 305.781 79.64C305.733 79.512 305.701 79.36 305.685 79.184C305.669 79.008 305.661 78.8159 305.661 78.6079C305.661 78.3199 305.677 78.0799 305.709 77.8879C305.741 77.6799 305.797 77.52 305.877 77.408C305.941 77.28 306.029 77.2159 306.141 77.2159V79.9999ZM308.661 85.1119V82.3759H311.877V85.1119H308.661ZM322.066 64.5919V63.512H327.394V64.5919H322.066ZM322.066 62.192V61.1119H327.394V62.192H322.066ZM333.676 79.9999V77.2159H336.196V79.9999H333.676ZM319.804 79.9999V77.2159H331.996L330.46 78.7999V63.0319H333.676V79.9999H319.804ZM323.14 77.2159V66.392H326.332V77.2159H323.14ZM336.196 79.9999V77.2159C336.292 77.2159 336.364 77.248 336.412 77.312C336.476 77.376 336.524 77.4719 336.556 77.5999C336.604 77.7279 336.636 77.88 336.652 78.056C336.668 78.216 336.676 78.3999 336.676 78.6079C336.676 78.8159 336.668 79.008 336.652 79.184C336.636 79.36 336.604 79.512 336.556 79.64C336.524 79.752 336.476 79.8399 336.412 79.9039C336.364 79.9679 336.292 79.9999 336.196 79.9999ZM336.188 79.9999V77.2159H352.844L350.612 79.0159V74.9119C350.612 73.5359 350.428 72.4319 350.06 71.5999C349.708 70.7679 349.14 70.1679 348.356 69.7999C347.588 69.4159 346.588 69.2239 345.356 69.2239C344.764 69.2239 344.116 69.248 343.412 69.296C342.708 69.328 342.004 69.3759 341.3 69.4399C340.612 69.4879 339.988 69.5439 339.428 69.6079L339.092 67.4479C339.636 67.3039 340.268 67.1519 340.988 66.9919C341.708 66.8319 342.46 66.6959 343.243 66.5839C344.044 66.4719 344.82 66.416 345.572 66.416C346.612 66.416 347.62 66.56 348.596 66.848C349.588 67.12 350.476 67.5839 351.26 68.2399C352.044 68.8799 352.668 69.7439 353.132 70.8319C353.596 71.9199 353.828 73.2799 353.828 74.9119V79.9999H336.188ZM338.66 77.2159V76.0159C338.66 75.2479 338.852 74.5359 339.236 73.8799C339.636 73.2079 340.18 72.68 340.868 72.296C341.556 71.896 342.324 71.6959 343.172 71.6959C344.02 71.6959 344.78 71.896 345.452 72.296C346.124 72.68 346.652 73.2 347.036 73.856C347.436 74.512 347.636 75.2319 347.636 76.0159V77.2159H345.092V76.0159C345.092 75.6159 345.004 75.264 344.828 74.96C344.652 74.64 344.42 74.384 344.132 74.192C343.844 74 343.524 73.9039 343.172 73.9039C342.82 73.9039 342.492 74 342.188 74.192C341.9 74.384 341.668 74.64 341.492 74.96C341.316 75.264 341.228 75.6159 341.228 76.0159V77.2159H338.66ZM336.188 79.9999C336.091 79.9999 336.019 79.9679 335.971 79.9039C335.907 79.8399 335.859 79.752 335.827 79.64C335.779 79.512 335.747 79.36 335.731 79.184C335.715 79.008 335.707 78.8159 335.707 78.6079C335.707 78.3199 335.723 78.0799 335.755 77.8879C335.787 77.6799 335.843 77.52 335.923 77.408C335.987 77.28 336.075 77.2159 336.188 77.2159V79.9999ZM357.637 79.9999V63.0319H360.829V79.9999H357.637ZM357.781 61.1119C357.477 60.7439 357.245 60.392 357.085 60.056C356.925 59.72 356.845 59.36 356.845 58.976C356.845 58.432 356.989 57.944 357.277 57.512C357.565 57.064 357.941 56.7199 358.405 56.4799C358.869 56.2239 359.381 56.0959 359.941 56.0959C360.245 56.0959 360.557 56.1359 360.877 56.2159C361.197 56.2959 361.469 56.4159 361.693 56.5759L360.877 58.0399C360.733 57.9599 360.589 57.9119 360.445 57.8959C360.317 57.8639 360.181 57.848 360.037 57.848C359.653 57.848 359.357 57.9519 359.149 58.1599C358.941 58.3519 358.837 58.616 358.837 58.952C358.837 59.144 358.877 59.328 358.957 59.504C359.037 59.68 359.157 59.872 359.317 60.08L357.781 61.1119ZM356.317 61.304V59.5519H362.125V61.304H356.317Z" fill="black"/>
</g>
<defs>
<filter id="filter0_d_1_503" x="-3" y="0" width="399" height="364" filterUnits="userSpaceOnUse" color-interpolation-filters="sRGB">
<feFlood flood-opacity="0" result="BackgroundImageFix"/>
<feColorMatrix in="SourceAlpha" type="matrix" values="0 0 0 0 0 0 0 0 0 0 0 0 0 0 0 0 0 0 127 0" result="hardAlpha"/>
<feOffset/>
<feGaussianBlur stdDeviation="1.5"/>
<feComposite in2="hardAlpha" operator="out"/>
<feColorMatrix type="matrix" values="0 0 0 0 0 0 0 0 0 0 0 0 0 0 0 0 0 0 0.1 0"/>
<feBlend mode="normal" in2="BackgroundImageFix" result="effect1_dropShadow_1_503"/>
<feBlend mode="normal" in="SourceGraphic" in2="effect1_dropShadow_1_503" result="shape"/>
</filter>
</defs>
</svg>
